<!DOCTYPE svg PUBLIC "-//W3C//DTD SVG 1.1//EN" "http://www.w3.org/Graphics/SVG/1.1/DTD/svg11.dtd">
<svg xmlns="http://www.w3.org/2000/svg" xmlns:xlink="http://www.w3.org/1999/xlink" width="1039px" height="981px" version="1.1"><defs/><g transform="translate(0.5,0.5)"><rect x="144" y="0" width="540" height="810" fill="#e6e6e6" stroke="none" pointer-events="none"/><rect x="794" y="130" width="140" height="310" fill="none" stroke="#000000" pointer-events="none"/><g fill="#000000" font-family="Helvetica" text-anchor="middle" font-size="18px"><text x="863.5" y="163.5">GOV.UK</text><text x="863.5" y="185.5">Verify hub</text></g><path d="M 23 734.89 C 16.97 734.89 11.6 729.85 11.6 722.13 C 11.6 716.14 16.14 710 22.79 710 C 29.28 710 34.03 715.94 34.03 722.42 C 34.03 729.91 28.43 734.89 23 734.89 Z M 0 760 C 0.52 754.48 1.22 746.94 2.54 743.13 C 3.15 741.4 4.04 740.16 5.47 739.12 C 6.4 738.43 9.7 736.61 10.31 736.31 C 11.37 735.76 12.46 735.47 13.4 736.31 C 19 741.26 26.74 741.11 32.42 736.33 C 33.08 735.65 34.12 735.83 34.81 736.1 C 35.9 736.52 39.38 738.57 40.04 738.99 C 41.96 740.25 43 741.93 43.77 745.09 C 44.75 749.36 45.33 754.79 46 760 Z" fill="#ffffff" stroke="#000000" stroke-miterlimit="10" pointer-events="none"/><rect x="191" y="675" width="140" height="90" fill="#ffffff" stroke="#000000" pointer-events="none"/><g fill="#000000" font-family="Helvetica" text-anchor="middle" font-size="18px"><text x="260.5" y="715.5">Government</text><text x="260.5" y="737.5">service</text></g><rect x="492" y="130" width="141" height="310" fill="#ffffff" stroke="#000000" pointer-events="none"/><g fill="#000000" font-family="Helvetica" text-anchor="middle" font-size="18px"><text x="562" y="163.5">Matching </text><text x="562" y="185.5">Service </text><text x="562" y="207.5">Adapter</text></g><g fill="#000000" font-family="Helvetica" font-weight="bold" text-anchor="middle" font-size="21px"><text x="414.5" y="55.5">Government </text><text x="414.5" y="80.5">organisation</text></g><g fill="#000000" font-family="Helvetica" text-anchor="middle" font-size="18px"><text x="23.5" y="687.5">User</text></g><rect x="191" y="520" width="140" height="90" fill="#ffffff" stroke="#000000" pointer-events="none"/><g fill="#000000" font-family="Helvetica" text-anchor="middle" font-size="18px"><text x="260.5" y="571.5">Data store</text></g><path d="M 191 720 L 90.24 720" fill="none" stroke="#000000" stroke-width="2" stroke-miterlimit="10" pointer-events="none"/><path d="M 76.24 720 L 90.24 715.33 L 90.24 724.67 Z" fill="#000000" stroke="#000000" stroke-width="2" stroke-miterlimit="10" pointer-events="none"/><g fill="#333333" font-family="Helvetica" text-anchor="middle" font-size="18px"><text x="413" y="159.5">Response:</text><text x="413" y="181.5">no-match</text></g><path d="M 633 208 L 777.76 208" fill="none" stroke="#000000" stroke-width="2" stroke-miterlimit="10" pointer-events="none"/><path d="M 791.76 208 L 777.76 212.67 L 777.76 203.33 Z" fill="#000000" stroke="#000000" stroke-width="2" stroke-miterlimit="10" pointer-events="none"/><path d="M 794 305 L 649.24 305" fill="none" stroke="#000000" stroke-width="2" stroke-miterlimit="10" pointer-events="none"/><path d="M 635.24 305 L 649.24 300.33 L 649.24 309.67 Z" fill="#000000" stroke="#000000" stroke-width="2" stroke-miterlimit="10" pointer-events="none"/><ellipse cx="859" cy="252" rx="12.5" ry="12.5" fill="#000000" stroke="#000000" pointer-events="none"/><g fill="#FFFFFF" font-family="Helvetica" font-weight="bold" text-anchor="middle" font-size="18px"><text x="858" y="258">2</text></g><rect x="884" y="222" width="150" height="70" fill="#ffffff" stroke="#ffffff" stroke-width="8" pointer-events="none"/><g fill="#333333" font-family="Helvetica" font-size="18px"><rect fill="#ffffff" stroke="#FFFFFF" x="890" y="226" width="120" height="64" stroke-width="1"/><text x="889.5" y="241">Check service </text><text x="889.5" y="263">can create </text><text x="889.5" y="285">accounts</text></g><ellipse cx="563" cy="406" rx="12.5" ry="12.5" fill="#000000" stroke="#000000" pointer-events="none"/><g fill="#FFFFFF" font-family="Helvetica" font-weight="bold" text-anchor="middle" font-size="18px"><text x="562" y="412">7</text></g><g fill="#333333" font-family="Helvetica" text-anchor="middle" font-size="18px"><text x="562" y="336.5">Extract</text><text x="562" y="358.5">attributes</text><text x="562" y="380.5">from MDS</text></g><g fill="#333333" font-family="Helvetica" font-size="18px"><text x="889.5" y="546.5">Forward </text><text x="889.5" y="568.5">the attributes</text></g><ellipse cx="715" cy="304" rx="12.5" ry="12.5" fill="#000000" stroke="#000000" pointer-events="none"/><g fill="#FFFFFF" font-family="Helvetica" font-weight="bold" text-anchor="middle" font-size="18px"><text x="714" y="310">3</text></g><rect x="190.5" y="130" width="141" height="310" fill="#ffffff" stroke="#000000" pointer-events="none"/><g fill="#000000" font-family="Helvetica" text-anchor="middle" font-size="18px"><text x="260.5" y="163.5">Local</text><text x="260.5" y="185.5">matching</text><text x="260.5" y="207.5">service</text></g><path d="M 331 207 L 475.76 207" fill="none" stroke="#000000" stroke-width="2" stroke-miterlimit="10" pointer-events="none"/><path d="M 489.76 207 L 475.76 211.67 L 475.76 202.33 Z" fill="#000000" stroke="#000000" stroke-width="2" stroke-miterlimit="10" pointer-events="none"/><ellipse cx="413" cy="206" rx="12.5" ry="12.5" fill="#000000" stroke="#000000" pointer-events="none"/><g fill="#FFFFFF" font-family="Helvetica" font-weight="bold" text-anchor="middle" font-size="18px"><text x="412" y="212">1</text></g><path d="M 494 305 L 349.24 305" fill="none" stroke="#000000" stroke-width="2" stroke-miterlimit="10" pointer-events="none"/><path d="M 335.24 305 L 349.24 300.33 L 349.24 309.67 Z" fill="#000000" stroke="#000000" stroke-width="2" stroke-miterlimit="10" pointer-events="none"/><ellipse cx="413" cy="304" rx="12.5" ry="12.5" fill="#000000" stroke="#000000" pointer-events="none"/><g fill="#FFFFFF" font-family="Helvetica" font-weight="bold" text-anchor="middle" font-size="18px"><text x="412" y="310">4</text></g><path d="M 331 410 L 444 410 L 475.76 410" fill="none" stroke="#000000" stroke-width="2" stroke-miterlimit="10" pointer-events="none"/><path d="M 489.76 410 L 475.76 414.67 L 475.76 405.33 Z" fill="#000000" stroke="#000000" stroke-width="2" stroke-miterlimit="10" pointer-events="none"/><ellipse cx="413" cy="410" rx="12.5" ry="12.5" fill="#000000" stroke="#000000" pointer-events="none"/><g fill="#FFFFFF" font-family="Helvetica" font-weight="bold" text-anchor="middle" font-size="18px"><text x="412" y="416">6</text></g><path d="M 261 440 L 261 503.76" fill="none" stroke="#000000" stroke-width="2" stroke-miterlimit="10" stroke-dasharray="6 6" pointer-events="none"/><path d="M 261 517.76 L 256.33 503.76 L 265.67 503.76 Z" fill="#000000" stroke="#000000" stroke-width="2" stroke-miterlimit="10" pointer-events="none"/><ellipse cx="261" cy="469" rx="12.5" ry="12.5" fill="#000000" stroke="#000000" pointer-events="none"/><g fill="#FFFFFF" font-family="Helvetica" font-weight="bold" text-anchor="middle" font-size="18px"><text x="260" y="475">5</text></g><path d="M 633 410 L 864 410 L 864 720 L 347.24 720" fill="none" stroke="#000000" stroke-width="2" stroke-miterlimit="10" pointer-events="none"/><path d="M 333.24 720 L 347.24 715.33 L 347.24 724.67 Z" fill="#000000" stroke="#000000" stroke-width="2" stroke-miterlimit="10" pointer-events="none"/><path d="M 261 675 L 261 626.24" fill="none" stroke="#000000" stroke-width="2" stroke-miterlimit="10" pointer-events="none"/><path d="M 261 612.24 L 265.67 626.24 L 256.33 626.24 Z" fill="#000000" stroke="#000000" stroke-width="2" stroke-miterlimit="10" pointer-events="none"/><ellipse cx="261" cy="649" rx="12.5" ry="12.5" fill="#000000" stroke="#000000" pointer-events="none"/><g fill="#FFFFFF" font-family="Helvetica" font-weight="bold" text-anchor="middle" font-size="18px"><text x="260" y="655">9</text></g><g fill="#333333" font-family="Helvetica" text-anchor="middle" font-size="18px"><text x="144.5" y="470.5">Store #PID and LOA </text><text x="144.5" y="492.5">(optional)</text></g><g fill="#333333" font-family="Helvetica" text-anchor="middle" font-size="18px"><text x="413" y="362.5">Response:</text><text x="413" y="384.5">success</text></g><ellipse cx="864" cy="550" rx="12.5" ry="12.5" fill="#000000" stroke="#000000" pointer-events="none"/><g fill="#FFFFFF" font-family="Helvetica" font-weight="bold" text-anchor="middle" font-size="18px"><text x="863" y="556">8</text></g><rect x="145" y="851" width="540" height="129" fill="none" stroke="#000000" pointer-events="none"/><g fill="#000000" font-family="Helvetica" font-size="18px"><text x="176.5" y="897.93">MDS</text><text x="176.5" y="919.93">#PID</text><text x="176.5" y="941.93">LOA</text></g><g fill="#333333" font-family="Helvetica" font-size="18px"><text x="241.5" y="897.93">Matching dataset</text><text x="241.5" y="919.93">Hashed persistent identifier</text><text x="241.5" y="941.93">Level of assurance</text></g></g></svg>